<svg xmlns="http://www.w3.org/2000/svg" version="1.1" xmlns:xlink="http://www.w3.org/1999/xlink" xmlns:svgjs="http://svgjs.dev/svgjs" width="1000" height="244" viewBox="0 0 1000 244"><g transform="matrix(1,0,0,1,-0.6060606060606233,-0.30000855720317077)"><svg viewBox="0 0 396 97" data-background-color="#ffffff" preserveAspectRatio="xMidYMid meet" height="244" width="1000" xmlns="http://www.w3.org/2000/svg" xmlns:xlink="http://www.w3.org/1999/xlink"><g id="tight-bounds" transform="matrix(1,0,0,1,0.2400000000000091,0.1192656969209338)"><svg viewBox="0 0 395.52 96.221980019848" height="96.221980019848" width="395.52"><g><svg viewBox="0 0 625.5744313039403 152.1895490237043" height="96.221980019848" width="395.52"><g transform="matrix(1,0,0,1,0,21.03343260747289)"><svg viewBox="0 0 395.52 110.12268380875852" height="110.12268380875852" width="395.52"><g><svg viewBox="0 0 395.52 110.12268380875852" height="110.12268380875852" width="395.52"><g><svg viewBox="0 0 395.52 110.12268380875852" height="110.12268380875852" width="395.52"><g transform="matrix(1,0,0,1,0,0)"><svg width="395.52" viewBox="2.75 -34.65 124.44 34.65" height="110.12268380875852" data-palette-color="#0718c4"><path d="M11.85-34.65Q16.65-34.65 20.23-33.3 23.8-31.95 26-28.15 28.2-24.35 28.2-17.5L28.2-17.5Q28.2-7.8 23.9-3.9 19.6 0 12.5 0L12.5 0 2.75 0 2.75-34.65 11.85-34.65ZM12.95-28.85L10.75-28.85 10.75-5.8 13-5.8Q15.3-5.8 16.8-6.8 18.3-7.8 19.13-10.38 19.95-12.95 19.95-17.5L19.95-17.5Q19.95-22.05 19.1-24.55 18.25-27.05 16.73-27.95 15.2-28.85 12.95-28.85L12.95-28.85ZM32.5-34.65L40.5-34.65 40.5 0 32.5 0 32.5-34.65ZM55.84-34.65Q62.5-34.65 66.07-31.8 69.65-28.95 69.65-23.4L69.65-23.4Q69.65-17.55 66.17-14.58 62.7-11.6 56.59-11.6L56.59-11.6 53.95-11.6 53.95 0 45.95 0 45.95-34.65 55.84-34.65ZM55.95-17.4Q58.75-17.4 60.09-18.78 61.45-20.15 61.45-23.35L61.45-23.35Q61.45-26.2 60.12-27.58 58.8-28.95 55.95-28.95L55.95-28.95 53.95-28.95 53.95-17.4 55.95-17.4ZM98.09 0L89.84 0 88.29-7.55 79.49-7.55 77.94 0 69.84 0 79.19-34.65 88.79-34.65 98.09 0ZM83.89-28.8L80.69-13.3 87.09-13.3 83.89-28.8ZM100.29-34.65L108.29-34.65 108.29 0 100.29 0 100.29-34.65ZM118.24-34.65L126.39-34.65 116.69-19.1 127.19 0 118.24 0 108.54-18.5 118.24-34.65Z" opacity="1" transform="matrix(1,0,0,1,0,0)" fill="#0718c4" class="undefined-text-0" data-fill-palette-color="primary" id="text-0"></path></svg></g></svg></g></svg></g></svg></g><g transform="matrix(1,0,0,1,421.51732270283645,0)"><svg viewBox="0 0 204.05710860110386 152.1895490237043" height="152.1895490237043" width="204.05710860110386"><g><svg xmlns="http://www.w3.org/2000/svg" xmlns:xlink="http://www.w3.org/1999/xlink" version="1.1" x="0" y="0" viewBox="14 19 80 59.66547308918638" enable-background="new 0 0 108.121 99.421" xml:space="preserve" width="204.05710860110386" height="152.1895490237043" class="icon-icon-0" data-fill-palette-color="accent" id="icon-0"><g fill="#24a8df" data-fill-palette-color="accent"></g><g fill="#24a8df" data-fill-palette-color="accent"></g><g fill="#24a8df" data-fill-palette-color="accent"></g><g fill="#24a8df" data-fill-palette-color="accent"></g><path d="M92 19H16c-1.104 0-2 0.896-2 2v45c0 1.104 0.896 2 2 2h76c1.104 0 2-0.896 2-2V21C94 19.896 93.104 19 92 19zM90 60H18V23h72V60z" fill="#24a8df" data-fill-palette-color="accent"></path><rect x="45" y="66" width="18" height="12" fill="#24a8df" data-fill-palette-color="accent"></rect><rect x="38" y="76" width="32" height="3" fill="#24a8df" data-fill-palette-color="accent"></rect><g fill="#24a8df" data-fill-palette-color="accent"><path d="M46.324 50.387L31.583 43.84v-2.508l14.741-7.377v4.33l-9.04 4.126 9.04 3.674V50.387z" fill="#24a8df" data-fill-palette-color="accent"></path><path d="M60.569 31.359l-7.947 21.915h-5.045l7.947-21.915H60.569z" fill="#24a8df" data-fill-palette-color="accent"></path><path d="M61.677 46.085l9.041-3.674-9.041-4.126v-4.33l14.741 7.377v2.508l-14.741 6.546V46.085z" fill="#24a8df" data-fill-palette-color="accent"></path></g></svg></g></svg></g></svg></g><defs></defs></svg><rect width="395.52" height="96.221980019848" fill="none" stroke="none" visibility="hidden"></rect></g></svg></g></svg>